HIERARCHY
ROOT Hips
{
	OFFSET 0.00000 0.00000 0.00000
	CHANNELS 6 Xposition Yposition Zposition Zrotation Yrotation Xrotation 
	JOINT LHipJoint
	{
		OFFSET 0 0 0
		CHANNELS 3 Zrotation Yrotation Xrotation
		JOINT LeftHip
		{
			OFFSET 1.28858 -1.83292 1.03970
			CHANNELS 3 Zrotation Yrotation Xrotation
			JOINT LeftKnee
			{
				OFFSET 2.47846 -6.80952 0.00000
				CHANNELS 3 Zrotation Yrotation Xrotation
				JOINT LeftAnkle
				{
					OFFSET 2.75274 -7.56311 0.00000
					CHANNELS 3 Zrotation Yrotation Xrotation
					JOINT LeftToe
					{
						OFFSET 0.12848 -0.35301 1.68223
						CHANNELS 3 Zrotation Yrotation Xrotation
						End Site
						{
							OFFSET 0.00000 -0.00000 0.87311
						}
					}
				}
			}
		}
	}
	JOINT RHipJoint
	{
		OFFSET 0 0 0
		CHANNELS 3 Zrotation Yrotation Xrotation
		JOINT RightHip
		{
			OFFSET -1.31183 -1.83292 1.03970
			CHANNELS 3 Zrotation Yrotation Xrotation
			JOINT RightKnee
			{
				OFFSET -2.44740 -6.72417 0.00000
				CHANNELS 3 Zrotation Yrotation Xrotation
				JOINT RightAnkle
				{
					OFFSET -2.67343 -7.34519 0.00000
					CHANNELS 3 Zrotation Yrotation Xrotation
					JOINT RightToe
					{
						OFFSET -0.16914 -0.46471 1.77626
						CHANNELS 3 Zrotation Yrotation Xrotation
						End Site
						{
							OFFSET -0.00000 -0.00000 0.92777
						}
					}
				}
			}
		}
	}
	JOINT lowerback
	{
		OFFSET 0 0 0
		CHANNELS 3 Zrotation Yrotation Xrotation
		JOINT Chest
		{
			OFFSET 0.01249 2.14252 0.03842
			CHANNELS 3 Zrotation Yrotation Xrotation
			JOINT Chest2
			{
				OFFSET -0.02957 2.14199 -0.03751
				CHANNELS 3 Zrotation Yrotation Xrotation
				JOINT lowerneck
				{
					OFFSET 0 0 0
					CHANNELS 3 Zrotation Yrotation Xrotation
					JOINT Neck
					{
						OFFSET -0.01678 1.65709 -0.05476
						CHANNELS 3 Zrotation Yrotation Xrotation
						JOINT Head
						{
							OFFSET 0.07912 1.58331 -0.11843
							CHANNELS 3 Zrotation Yrotation Xrotation
							End Site
							{
								OFFSET 0.03298 1.73940 -0.04271
							}
						}
					}
				}
				JOINT LeftCollar
				{
					OFFSET 0 0 0
					CHANNELS 3 Zrotation Yrotation Xrotation
					JOINT LeftShoulder
					{
						OFFSET 3.39556 1.16496 0.08673
CHANNELS 3 Zrotation Xrotation Yrotation
						JOINT LeftElbow
						{
OFFSET 0 -5.239100 -0.000000
CHANNELS 3 Zrotation Xrotation Yrotation
							JOINT LeftWrist
							{
OFFSET 0 -3.314670 0.000000
CHANNELS 3 Zrotation Xrotation Yrotation
								JOINT lhand
								{
									OFFSET 0 0 0
CHANNELS 3 Zrotation Xrotation Yrotation
									JOINT LFingers
									{
OFFSET 0 -0.965900 0.000000
CHANNELS 3 Zrotation Xrotation Yrotation
										End Site
										{
OFFSET 0 -0.778730 0.000000
										}
									}
								}
								JOINT LThumb
								{
OFFSET 0 0.000000 0.000000
CHANNELS 3 Zrotation Xrotation Yrotation
									End Site
									{
OFFSET 0 -0.790620 0.790620
									}
								}
							}
						}
					}
				}
				JOINT RightCollar
				{
					OFFSET 0 0 0
					CHANNELS 3 Zrotation Yrotation Xrotation
					JOINT RightShoulder
					{
						OFFSET -3.27193 1.31331 0.33940
CHANNELS 3 Zrotation Xrotation Yrotation
						JOINT RightElbow
						{
OFFSET 0 -5.302520 0.000000
CHANNELS 3 Zrotation Xrotation Yrotation
							JOINT RightWrist
							{
OFFSET 0 -3.678750 0.000000
CHANNELS 3 Zrotation Xrotation Yrotation
								JOINT rhand
								{
									OFFSET 0 0 0
CHANNELS 3 Zrotation Xrotation Yrotation
									JOINT RFingers
									{
OFFSET 0 -0.594810 0.000000
CHANNELS 3 Zrotation Xrotation Yrotation
										End Site
										{
OFFSET 0 -0.479550 0.000000
										}
									}
								}
								JOINT RThumb
								{
OFFSET 0 0.000000 0.000000
CHANNELS 3 Zrotation Xrotation Yrotation
									End Site
									{
OFFSET 0 -0.486870 0.486870
									}
								}
							}
						}
					}
				}
			}
		}
	}
}
MOTION
Frames: 9
Frame Time: .0083333
9.4135 21.9455 7.1970 -159.3840 6.5303 158.0680 0.0000 0.0000 0.0000 2.4131 15.9363 -2.7807 3.5897 11.5934 34.3085 -1.3658 21.8786 0.9586 4.2785 12.5221 37.6048 0.0000 0.0000 0.0000 -34.1248 -18.3825 -59.4956 -13.7473 -19.0356 71.4312 -2.2137 -9.0983 -32.5397 -0.0661 1.6585 -4.5628 2.9144 -11.5778 5.1916 5.6826 -14.6282 5.7692 4.5297 -6.9142 3.9830 -2.0027 -10.4760 0.1884 -0.5796 -13.8309 7.0083 -0.1315 -6.8986 2.2785 -0.0000 0.0000 0.0000 117.5356 -70.8571 51.0341 16.8808 -26.7003 4.0336 38.7532 -27.1756 22.5611 0.0 0.0 0.0 -7.1250 0.0 0.0 5.9668 2.0659 5.7796 -0.0000 0.0000 0.0000 -118.6817 -16.8009 -43.6878 -30.4254 -41.2552 -11.6891 -19.3091 -7.2375 30.8369 0.0 0.0 0.0 7.1250 0.0 -0.0 14.5947 61.7095 -6.0051
9.3436 22.1446 7.3947 -159.5760 10.0709 157.7670 0.0000 0.0000 0.0000 3.5403 18.1431 -5.6581 4.4273 12.7083 38.2862 -1.3479 20.7828 -1.8582 5.3189 13.7342 42.1831 0.0000 0.0000 0.0000 -33.0452 -18.4532 -60.0038 -13.5556 -18.9737 70.8426 -1.9308 -11.2535 -32.3165 -0.3517 3.8104 -10.5437 3.2830 -11.8666 6.0183 6.1199 -14.8475 6.2067 4.9232 -6.9659 4.0500 -3.1967 -10.1784 0.4873 -0.6464 -13.3517 8.4624 0.0012 -6.6743 2.7948 0.0000 -0.0000 0.0000 117.0249 -69.8299 52.5521 15.3600 -24.6452 3.3746 40.2581 -27.5061 22.9521 0.0 0.0 0.0 -7.1250 0.0 0.0 6.7801 1.1306 6.6924 0.0000 -0.0000 0.0000 -119.0839 -20.3388 -45.7286 -30.4506 -41.2765 -11.7058 -20.6964 -6.9063 30.2149 0.0 0.0 0.0 7.1250 0.0 -0.0 12.6009 61.4458 -5.0904
9.2692 22.3365 7.6004 -159.5780 13.7709 157.4570 0.0000 0.0000 0.0000 4.9326 19.3648 -7.9409 4.9584 13.3368 40.6425 -1.2362 19.7399 -2.6062 3.4511 11.3918 33.6128 0.0000 0.0000 0.0000 -31.9566 -18.0113 -59.7502 -13.3806 -18.9153 70.3035 -2.1078 -9.8585 -32.4053 -0.1405 2.4157 -6.6560 3.7049 -12.2077 7.1173 6.6606 -15.0717 6.6341 5.4641 -7.0108 3.9840 -4.3097 -9.7826 0.6307 -1.4765 -12.6530 9.9858 -0.1103 -6.3704 3.3028 0.0000 0.0000 0.0000 115.1014 -68.5059 52.7215 14.0226 -22.767 2.8368 42.2097 -27.7962 23.6626 0.0 0.0 0.0 -7.1250 0.0 0.0 7.7670 -0.3812 7.8912 0.0000 0.0000 0.0000 -119.7268 -24.2219 -47.6084 -30.3211 -41.167 -11.6204 -22.1321 -6.5116 30.0251 0.0 0.0 0.0 7.1250 0.0 -0.0 10.8481 61.6166 -4.4161
9.1903 22.5190 7.8127 -159.9630 17.2393 157.2620 0.0000 0.0000 0.0000 5.6340 19.9171 -10.2444 5.3819 13.8014 42.4475 -1.1121 18.3023 -7.9325 4.4355 12.7184 38.3235 0.0000 0.0000 0.0000 -31.2380 -17.6129 -59.3567 -13.1631 -18.8402 69.6312 -2.2537 -8.2111 -32.2329 -0.0768 1.7876 -4.9191 3.7626 -12.2120 8.0407 6.9069 -14.9318 7.0730 5.8367 -6.9126 4.0076 -4.4265 -9.6979 1.0826 -2.6094 -12.3695 11.0797 -0.4500 -6.2533 3.5218 0.0000 -0.0000 0.0000 114.214 -67.6307 53.48 13.0207 -21.3175 2.4608 43.2143 -27.0202 23.8729 0.0 0.0 0.0 -7.1250 0.0 0.0 8.3004 -0.9998 8.5334 0.0000 -0.0000 0.0000 -119.6517 -27.3314 -48.6838 -30.1628 -41.0326 -11.5164 -23.5647 -6.2925 30.3108 0.0 0.0 0.0 7.1250 0.0 -0.0 9.3792 62.2692 -3.9563
9.1122 22.6963 8.0331 -160.4340 20.7408 157.0920 0.0000 0.0000 0.0000 6.2429 20.0254 -12.5088 5.5677 13.9959 43.2212 -0.9904 17.9567 -11.9750 4.1739 12.3883 37.1200 0.0000 0.0000 0.0000 -30.1943 -17.1174 -59.0277 -12.9347 -18.7585 68.9226 -2.2010 -8.0796 -31.8424 -0.1192 2.2254 -6.1291 3.7454 -12.0642 8.9142 7.0083 -14.6182 7.6209 6.0683 -6.7343 4.1392 -4.1646 -9.5498 1.0071 -3.6800 -11.9451 12.6597 -0.8816 -6.0565 3.9989 0.0000 0.0000 0.0000 113.7306 -66.7297 54.2728 12.2484 -20.1761 2.1872 43.9356 -25.4537 23.5708 0.0 0.0 0.0 -7.1250 0.0 0.0 8.7887 -0.9065 9.033 0.0000 0.0000 0.0000 -119.2821 -30.404 -49.7981 -29.7939 -40.7161 -11.2749 -24.6788 -6.1805 31.0916 0.0 0.0 0.0 7.1250 0.0 -0.0 8.5688 63.3527 -3.8299
9.0407 22.8663 8.2571 -160.6230 24.3236 156.8800 0.0000 0.0000 0.0000 7.4041 19.7459 -14.6583 5.7010 14.1322 43.7696 -0.5685 16.0023 -15.5826 4.8721 13.2383 40.2672 0.0000 0.0000 0.0000 -28.6316 -16.4925 -58.3793 -12.6604 -18.6561 68.0675 -1.9985 -9.2073 -31.3220 -0.3006 3.5250 -9.7441 3.9221 -11.8936 9.8460 7.0177 -14.2467 8.3266 6.1023 -6.5050 4.3346 -4.0011 -9.2598 0.8137 -4.3542 -11.3344 14.3028 -1.1852 -5.7611 4.5782 0.0000 -0.0000 0.0000 113.319 -65.6718 54.4915 11.6247 -19.2394 1.9769 44.8499 -23.9976 22.9746 0.0 0.0 0.0 -7.1250 0.0 0.0 9.4597 -0.5302 9.6793 0.0000 -0.0000 0.0000 -118.6277 -33.6621 -50.9311 -29.2121 -40.2084 -10.8974 -25.0087 -6.3863 31.9583 0.0 0.0 0.0 7.1250 0.0 -0.0 8.7605 64.3195 -4.1141
8.9747 23.0233 8.4825 -160.3940 27.9391 156.7770 0.0000 0.0000 0.0000 9.3070 19.1313 -16.7994 5.7536 14.1852 43.9845 -0.4040 15.7009 -17.5351 4.1060 12.3001 36.8019 0.0000 0.0000 0.0000 -26.7026 -15.7353 -57.2960 -12.3986 -18.5541 67.2468 -2.0270 -9.2906 -31.5499 -0.2444 3.1815 -8.7844 5.1266 -11.1862 10.3728 6.5267 -13.1312 9.5949 4.9362 -5.7962 4.9311 -2.4374 -9.4384 -0.3745 -4.7733 -11.4517 16.3037 -1.5369 -5.7832 4.8330 -0.0000 -0.0000 0.0000 117.1437 -65.6708 57.3501 11.2537 -18.6761 1.8564 46.1923 -24.4513 23.2529 0.0 0.0 0.0 -7.1250 0.0 0.0 10.1625 -1.4093 10.5756 -0.0000 -0.0000 0.0000 -116.4184 -34.9281 -51.3935 -28.5155 -39.5865 -10.4506 -25.0773 -7.0038 32.5679 0.0 0.0 0.0 7.1250 0.0 -0.0 9.1175 64.9533 -4.4173
8.9075 23.1670 8.7144 -160.3120 31.2669 156.7430 0.0000 0.0000 0.0000 11.1308 18.0221 -19.0045 5.6673 14.0980 43.6315 -0.1300 13.8971 -18.1696 3.9616 12.1091 36.1192 0.0000 0.0000 0.0000 -24.9507 -15.2570 -56.1484 -12.2074 -18.4770 66.6448 -2.1893 -8.9517 -32.3045 -0.1180 2.2144 -6.0985 5.5339 -10.9273 11.2687 6.4252 -12.6150 10.2639 4.7051 -5.4700 5.0444 -2.7407 -9.1381 -0.0218 -4.8521 -10.9202 17.3139 -1.5075 -5.5214 5.1081 -0.0000 0.0000 0.0000 116.645 -64.6386 56.4137 11.0091 -18.3022 1.7788 48.6117 -25.7999 23.5644 0.0 0.0 0.0 -7.1250 0.0 0.0 11.4536 -2.845 12.2505 -0.0000 0.0000 0.0000 -115.5232 -37.476 -51.3342 -27.5794 -38.7261 -9.8594 -25.5515 -7.7933 33.2316 0.0 0.0 0.0 7.1250 0.0 -0.0 9.0327 65.7554 -4.5435
8.8417 23.2986 8.9496 -160.8190 34.1899 156.4470 0.0000 0.0000 0.0000 12.4981 16.3967 -21.0669 5.4656 13.8897 42.7974 0.3912 10.4999 -19.8935 5.1798 13.5835 41.5940 0.0000 0.0000 0.0000 -23.6076 -15.3236 -55.1349 -12.0949 -18.4305 66.2894 -2.1517 -10.0715 -32.8031 -0.1913 2.8168 -7.7692 5.2981 -10.6353 12.1475 6.1322 -12.1505 10.8541 4.5901 -5.2285 5.1812 -2.7639 -8.8255 -0.3411 -5.2754 -10.2864 18.7979 -1.6666 -5.2245 5.6100 -0.0000 0.0000 0.0000 116.4278 -63.5093 56.2349 10.9621 -18.2301 1.764 49.2814 -26.8338 23.6355 0.0 0.0 0.0 -7.1250 0.0 0.0 11.8102 -3.2436 12.7267 -0.0000 0.0000 0.0000 -114.6788 -40.0854 -51.2 -26.4435 -37.6433 -9.1572 -26.1995 -8.5613 33.8966 0.0 0.0 0.0 7.1250 0.0 -0.0 8.7406 66.6117 -4.5676
